<svg xmlns="http://www.w3.org/2000/svg" xmlns:xlink="http://www.w3.org/1999/xlink" width="81.626" height="24.015" viewBox="0 0 81.626 24.015">
  <defs>
    <clipPath id="clip-path">
      <rect width="81.626" height="24.015" fill="none"/>
    </clipPath>
  </defs>
  <g id="リピートグリッド_1" data-name="リピートグリッド 1" clip-path="url(#clip-path)">
    <g id="グループ_115" data-name="グループ 115" transform="translate(-874.159 -5006.954)">
      <path id="パス_828" data-name="パス 828" d="M877.515,5011.125c0-.31.38-.689.882-1.093,2.147-1.725,2.547-2.074,2.672-2.2s.16-.185.16-.254a.222.222,0,0,0-.091-.2.363.363,0,0,0-.211-.06v-.363h4.233v.363a1.14,1.14,0,0,0-.726.3s-2.657,1.935-3.147,2.313c-1.151.884-1.387,1.018-1.387,1.327,0,.281.738,1.123,1.21,1.713.326.408,2.922,3.235,2.922,3.235a5.106,5.106,0,0,0,.614.594,1.939,1.939,0,0,0,.7.393v.364h-3.73v-.364c.176,0,.262-.047.262-.141a1.164,1.164,0,0,0-.28-.443l-3.564-4.462c-.323-.461-.515-.652-.515-1.022m-.616,5.706a.312.312,0,0,0,.123.271,2.631,2.631,0,0,0,.7.091v.364h-3.567v-.364c.295,0,.443-.12.443-.362v-9.152q0-.362-.443-.362v-.363h3.567v.363a2.631,2.631,0,0,0-.7.091.312.312,0,0,0-.123.271Z" fill="#fff"/>
      <path id="パス_829" data-name="パス 829" d="M912.707,5011.125c0-.31.379-.689.881-1.093,2.145-1.725,2.546-2.074,2.67-2.2s.163-.185.163-.254a.224.224,0,0,0-.093-.2.359.359,0,0,0-.211-.06v-.363h4.233v.363a1.135,1.135,0,0,0-.725.3s-2.658,1.935-3.147,2.313c-1.151.884-1.388,1.018-1.388,1.327,0,.281.737,1.123,1.209,1.713.328.408,2.922,3.235,2.922,3.235a5.192,5.192,0,0,0,.615.594,1.955,1.955,0,0,0,.7.393v.364H916.8v-.364c.175,0,.263-.047.263-.141a1.156,1.156,0,0,0-.284-.443l-3.563-4.462c-.323-.461-.512-.652-.512-1.022m-.616,5.706a.311.311,0,0,0,.121.271,2.647,2.647,0,0,0,.7.091v.364h-3.567v-.364c.3,0,.443-.12.443-.362v-9.152c0-.241-.147-.362-.443-.362v-.363h3.567v.363a2.647,2.647,0,0,0-.7.091.311.311,0,0,0-.121.271Z" fill="#fff"/>
      <path id="パス_830" data-name="パス 830" d="M897.069,5015.884c2.243,0,2.988-.4,2.988-4.307v-3.9c0-.241-.571-.362-.867-.362v-.363h3.729v.363q-.564,0-.564.362v3.84c0,4.083-.62,6.359-5.4,6.359s-5.363-2.276-5.363-6.359v-3.84q0-.362-.566-.362v-.363h3.73v.363c-.3,0-.867.121-.867.362v3.9c0,3.9.747,4.307,2.988,4.307Z" fill="#fff"/>
      <path id="パス_831" data-name="パス 831" d="M930.381,5011.125c0-.31.379-.689.88-1.093,2.147-1.725,2.547-2.074,2.671-2.2s.163-.185.163-.254a.222.222,0,0,0-.091-.2.37.37,0,0,0-.213-.06v-.363h4.233v.363a1.135,1.135,0,0,0-.725.3s-2.658,1.935-3.147,2.313c-1.153.884-1.388,1.018-1.388,1.327,0,.281.738,1.123,1.211,1.713.325.408,2.922,3.235,2.922,3.235a5.1,5.1,0,0,0,.613.594,1.955,1.955,0,0,0,.7.393v.364h-3.729v-.364c.173,0,.263-.047.263-.141a1.148,1.148,0,0,0-.283-.443l-3.563-4.462c-.322-.461-.513-.652-.513-1.022m-.616,5.706a.316.316,0,0,0,.121.271,2.647,2.647,0,0,0,.7.091v.364h-3.567v-.364c.3,0,.443-.12.443-.362v-9.152c0-.241-.147-.362-.443-.362v-.363h3.567v.363a2.647,2.647,0,0,0-.7.091.316.316,0,0,0-.121.271Z" fill="#fff"/>
      <path id="パス_832" data-name="パス 832" d="M949.935,5015.884c2.241,0,2.987-.4,2.987-4.307v-3.9c0-.241-.57-.362-.866-.362v-.363h3.729v.363c-.376,0-.566.121-.566.362v3.84c0,4.083-.62,6.359-5.4,6.359s-5.365-2.276-5.365-6.359v-3.84q0-.362-.564-.362v-.363h3.729v.363c-.3,0-.868.121-.868.362v3.9c0,3.9.747,4.307,2.989,4.307Z" fill="#fff"/>
      <g id="グループ_114" data-name="グループ 114">
        <path id="パス_833" data-name="パス 833" d="M883.132,5027.588l-1.142.042-.085,1.127.154-.007a1.381,1.381,0,0,0,.386-.056.272.272,0,0,1,.077-.014c.058,0,.113.035.212.112a.221.221,0,0,1,.088.139c0,.05-.04.077-.1.085l-4.62.175c-.112,0-.2.013-.26.013a.2.2,0,0,1-.141-.048.586.586,0,0,1-.152-.218.054.054,0,0,1-.008-.034c0-.021.014-.035.042-.035s.02.006.035.006a1.245,1.245,0,0,0,.314.036h.077l.428-.015-.064-1.106-.784.05h-.1a.316.316,0,0,1-.229-.056.6.6,0,0,1-.141-.19c-.021-.049,0-.07.064-.064a1.246,1.246,0,0,0,.292.037h.056l.827-.037-.029-.468a.633.633,0,0,0-.069-.287.112.112,0,0,1-.022-.062c0-.036.029-.05.085-.05a.553.553,0,0,1,.125.021c.12.029.162.064.168.139l.035.7.8-.043-.013-.805a.71.71,0,0,0-.056-.287.21.21,0,0,1-.021-.077c0-.029.013-.035.05-.035a.676.676,0,0,1,.138.019c.106.023.2.064.2.141l.021,1.023.75-.029.013-.882a.988.988,0,0,0-.042-.287c-.014-.056,0-.076.042-.076a.512.512,0,0,1,.162.041c.1.035.173.069.173.14l-.027,1.043.833-.035.056-.826v-.07a.5.5,0,0,0-.041-.217.057.057,0,0,1-.008-.035c0-.021.021-.035.056-.035a.4.4,0,0,1,.154.035c.091.035.2.1.189.169l-.071.958.483-.021a1.425,1.425,0,0,0,.359-.048.188.188,0,0,1,.069-.014.3.3,0,0,1,.181.091c.077.061.106.111.106.154s-.042.069-.083.077m-4.662,2.086a5.417,5.417,0,0,1-.829,1.21.1.1,0,0,1-.082.049c-.043,0-.091-.027-.155-.1a.262.262,0,0,1-.063-.148.116.116,0,0,1,.036-.077,4.143,4.143,0,0,0,.8-1.1c.029-.056.056-.085.106-.085a.238.238,0,0,1,.1.029c.077.034.112.077.112.125a.168.168,0,0,1-.027.092m3.863-3.732-3.7.174a6.635,6.635,0,0,1-.932.877.41.41,0,0,1-.189.084.043.043,0,0,1-.048-.042.3.3,0,0,1,.125-.191,7.314,7.314,0,0,0,1.366-1.784.9.9,0,0,0,.1-.308c.008-.035.021-.048.043-.048.042,0,.1.034.2.119a.288.288,0,0,1,.12.195.127.127,0,0,1-.014.05,6.747,6.747,0,0,1-.52.747l2.969-.167a1.627,1.627,0,0,0,.274-.035.119.119,0,0,1,.048-.008c.042,0,.085.029.175.106a.2.2,0,0,1,.085.147c0,.05-.035.077-.106.084m-2.871,1.792-.782.043.062,1.106.743-.029Zm.414,2.991a.256.256,0,0,1-.14.061c-.043,0-.077-.035-.1-.112a5.819,5.819,0,0,0-.561-.938.17.17,0,0,1-.042-.1c0-.037.021-.071.077-.1.1-.076.14-.062.223.042a6.086,6.086,0,0,1,.6.875.31.31,0,0,1,.043.133.168.168,0,0,1-.091.135m-.09-3.006.021,1.121.7-.029.022-1.119Zm1.609,3.011a.259.259,0,0,1-.147.077c-.042,0-.077-.034-.112-.1a6.75,6.75,0,0,0-.791-1.021.163.163,0,0,1-.056-.106c0-.027.021-.062.071-.1a.166.166,0,0,1,.112-.064c.034,0,.069.027.111.069a8.709,8.709,0,0,1,.827.96.293.293,0,0,1,.062.154.174.174,0,0,1-.077.125m-.553-3.052-.029,1.122.778-.029.069-1.129Zm2.219,3.172a.23.23,0,0,1-.141.077c-.04,0-.075-.029-.111-.077a9.551,9.551,0,0,0-1.056-1.183.149.149,0,0,1-.056-.1.144.144,0,0,1,.048-.1.163.163,0,0,1,.12-.063.147.147,0,0,1,.111.048,10.335,10.335,0,0,1,1.1,1.114.243.243,0,0,1,.063.14.259.259,0,0,1-.077.147" fill="#fff"/>
        <path id="パス_834" data-name="パス 834" d="M885.2,5027.531c-.049.07-.085.1-.12.1s-.069-.022-.117-.072a7.56,7.56,0,0,0-.9-.712.149.149,0,0,1-.077-.12.168.168,0,0,1,.042-.1c.035-.048.064-.07.1-.07a.3.3,0,0,1,.126.049,9.2,9.2,0,0,1,.919.659.187.187,0,0,1,.082.138.238.238,0,0,1-.055.127m.14.707c-.218.679-.489,1.415-.742,2.024-.057.127-.092.223-.175.223h-.013a.687.687,0,0,1-.322-.112c-.05-.034-.05-.063,0-.1a.657.657,0,0,0,.216-.272,18.894,18.894,0,0,0,.847-1.834c.077-.189.147-.273.189-.273.027,0,.048.034.048.1a.773.773,0,0,1-.048.244m.16-2.142c-.048.064-.085.091-.117.091s-.077-.027-.128-.085a6.869,6.869,0,0,0-.826-.8.148.148,0,0,1-.062-.1.177.177,0,0,1,.048-.113.149.149,0,0,1,.106-.064.174.174,0,0,1,.118.058,9.9,9.9,0,0,1,.855.747.239.239,0,0,1,.07.141.206.206,0,0,1-.064.133m5.035,2.247c-.147.14-.232.167-.274.167h-.029c-.006,0-.006-.006-.013-.006a5.934,5.934,0,0,1-2.226-1.869l-.568.035a5.287,5.287,0,0,1-1.9,2.044.309.309,0,0,1-.138.056c-.043,0-.064-.021-.064-.056a.241.241,0,0,1,.112-.154,5.493,5.493,0,0,0,1.6-1.869l-1.029.07c-.056,0-.106.007-.141.007a.236.236,0,0,1-.181-.055.436.436,0,0,1-.14-.224c-.008-.035,0-.058.021-.058s.021.008.029.008a1.191,1.191,0,0,0,.287.029h.09l1.212-.071a5.974,5.974,0,0,0,.285-.848c-.4.063-.769.119-1.1.154a.388.388,0,0,1-.09.008c-.128,0-.189-.035-.189-.085s.09-.118.258-.139a14.836,14.836,0,0,0,2.339-.559.748.748,0,0,0,.237-.127.06.06,0,0,1,.05-.015c.048,0,.117.042.2.162a.454.454,0,0,1,.092.2c0,.044-.021.064-.071.071-.447.1-.888.181-1.316.258a6.1,6.1,0,0,1-.314.891l1.728-.1a1.208,1.208,0,0,0,.329-.05.2.2,0,0,1,.056-.005.287.287,0,0,1,.2.1.217.217,0,0,1,.09.146c0,.048-.042.075-.119.083l-1.5.071a4.7,4.7,0,0,0,2.175,1.574c.042.016.071.035.071.064s-.013.05-.055.091m-3.669.321a7.5,7.5,0,0,1-.925,1.478.119.119,0,0,1-.1.064.233.233,0,0,1-.133-.07c-.1-.084-.1-.154-.019-.246a5.423,5.423,0,0,0,.894-1.38.114.114,0,0,1,.106-.069.3.3,0,0,1,.09.021c.077.037.106.077.106.125a.173.173,0,0,1-.021.077m.8,2.228a.253.253,0,0,1-.176.077.444.444,0,0,1-.175-.051,3.476,3.476,0,0,1-.728-.46c-.118-.09-.174-.175-.174-.218s.02-.048.062-.048a.5.5,0,0,1,.231.077,5.083,5.083,0,0,0,.68.285l-.007-2.784a.583.583,0,0,0-.064-.287.069.069,0,0,1-.006-.029c0-.029.029-.034.064-.034a.5.5,0,0,1,.181.04c.091.037.175.093.175.156l.014,2.821c0,.083.008.16.008.231a.273.273,0,0,1-.085.224m1.449-.785a.291.291,0,0,1-.126.056c-.048,0-.077-.034-.111-.119a9.294,9.294,0,0,0-.8-1.357.17.17,0,0,1-.048-.1c0-.034.029-.069.077-.1a.2.2,0,0,1,.112-.05c.034,0,.063.029.106.077a10.324,10.324,0,0,1,.853,1.331.342.342,0,0,1,.05.133c0,.043-.029.085-.113.133m1.079-.119a.253.253,0,0,1-.133.064c-.056,0-.1-.035-.133-.1a8.694,8.694,0,0,0-1.045-1.437.1.1,0,0,1-.04-.077c0-.027.021-.062.069-.112a.211.211,0,0,1,.112-.056.183.183,0,0,1,.125.072,10.937,10.937,0,0,1,1.085,1.385.231.231,0,0,1,.05.127c0,.048-.027.083-.09.139" fill="#fff"/>
        <path id="パス_835" data-name="パス 835" d="M894.1,5026.8a18.9,18.9,0,0,1-.308,3.249,1.015,1.015,0,0,1-.218.551.313.313,0,0,1-.447.023c-.245-.183-.512-.393-.749-.6-.1-.091-.147-.168-.147-.218,0-.027.02-.048.062-.048a.469.469,0,0,1,.245.1c.036.027.077.05.113.077a7,7,0,0,0,.63.322c.006,0,.014.008.027.008a.047.047,0,0,0,.05-.043,13.1,13.1,0,0,0,.391-3.466l-.867.077a10.994,10.994,0,0,1-.19,1.1,5.083,5.083,0,0,1-1.511,2.7.337.337,0,0,1-.169.1c-.035,0-.048-.021-.048-.056a.341.341,0,0,1,.1-.21,5.663,5.663,0,0,0,1.259-2.514,8.839,8.839,0,0,0,.19-1.093l-.736.058c-.069.006-.119.006-.16.006a.2.2,0,0,1-.161-.056.54.54,0,0,1-.147-.21.056.056,0,0,1-.008-.035c0-.021.014-.035.043-.035.008,0,.013.008.027.008a1.677,1.677,0,0,0,.358.021l.819-.063c.042-.47.056-.9.056-1.268a1.748,1.748,0,0,0-.035-.412v-.023c0-.07.077-.07.237,0,.127.05.191.106.191.169-.023.5-.05,1.015-.093,1.5l.933-.083h.048a.219.219,0,0,1,.154.056.225.225,0,0,1,.1.167c0,.064-.042.106-.042.141m2.744-.063-.16,2.653c.119.106.16.175.16.223s-.064.071-.125.077l-1.534.056.021.441a.084.084,0,0,1-.091.091.393.393,0,0,1-.14-.041c-.12-.056-.154-.106-.154-.154,0-.015.007-.029.007-.042a1.634,1.634,0,0,0,.014-.168c0-.05-.008-.1-.008-.148l-.112-2.906a.983.983,0,0,0-.09-.314.261.261,0,0,1-.027-.1c0-.029.012-.048.062-.048a1.241,1.241,0,0,1,.391.125l1.514-.106h.054a.246.246,0,0,1,.162.058c.077.048.106.1.106.139s-.043.113-.05.162m-1.792.034.125,2.682,1.185-.05.125-2.722Z" fill="#fff"/>
        <path id="パス_836" data-name="パス 836" d="M900.418,5026.951a7.1,7.1,0,0,1-1.813,2.841.225.225,0,0,1-.127.049.076.076,0,0,1-.077-.083.224.224,0,0,1,.077-.154,8.607,8.607,0,0,0,1.555-2.709.479.479,0,0,0,.021-.12c0-.09-.042-.14-.042-.189a.1.1,0,0,1,.013-.042c.008-.013.021-.021.05-.021a.758.758,0,0,1,.287.112c.07.05.1.092.1.14a.577.577,0,0,1-.041.176m3.185,2.61a.138.138,0,0,1-.119-.077,21.966,21.966,0,0,0-1.765-2.807.126.126,0,0,1-.035-.091.185.185,0,0,1,.176-.169.11.11,0,0,1,.09.05,16.283,16.283,0,0,1,1.85,2.794.273.273,0,0,1,.013.069.247.247,0,0,1-.21.231m-.3-2.576a.651.651,0,1,1,.644-.657.65.65,0,0,1-.644.657m0-1.05a.4.4,0,1,0,.4.393.4.4,0,0,0-.4-.393" fill="#fff"/>
        <path id="パス_837" data-name="パス 837" d="M910.4,5026.572a.5.5,0,0,0-.056.112,6.905,6.905,0,0,1-3.312,3.971.289.289,0,0,1-.258.019.043.043,0,0,1-.021-.042c0-.043.056-.1.154-.16a7.09,7.09,0,0,0,3.038-3.823c-.959.048-3.152.293-3.283.3a8.469,8.469,0,0,1,.139,1.127c0,.183-.027.252-.1.273h-.029c-.1,0-.216-.146-.239-.273,0-.014-.006-.027-.006-.048,0-.051.014-.1.014-.147v-.023a7.565,7.565,0,0,0-.195-1.378.939.939,0,0,1-.058-.244.086.086,0,0,1,.029-.077.128.128,0,0,1,.085-.029.208.208,0,0,1,.062.013.3.3,0,0,1,.084.1,2.155,2.155,0,0,1,.133.359.317.317,0,0,0,.112.021h.029c.062-.008.651-.064,1.316-.127v-1.114a.257.257,0,0,0-.071-.167.142.142,0,0,1-.043-.091v-.015c.008-.033.05-.048.1-.048a.648.648,0,0,1,.245.055c.112.043.112.112.112.2v1.14c.853-.077,1.722-.162,1.749-.162a.318.318,0,0,1,.245.12.16.16,0,0,1,.05.1.122.122,0,0,1-.021.056" fill="#fff"/>
        <path id="パス_838" data-name="パス 838" d="M917.321,5025.914a1.2,1.2,0,0,0-.071.1,10.034,10.034,0,0,1-4.073,4.476.439.439,0,0,1-.2.054c-.048,0-.085-.014-.091-.035v-.019c0-.042.043-.106.176-.191a10.41,10.41,0,0,0,2.414-2.156,12.835,12.835,0,0,0-1.26-.93,7.236,7.236,0,0,1-1.05.874.351.351,0,0,1-.139.043.072.072,0,0,1-.071-.037.043.043,0,0,1-.006-.027.23.23,0,0,1,.1-.154,10.5,10.5,0,0,0,1.863-2.044.226.226,0,0,0,.019-.168.273.273,0,0,1-.013-.069.083.083,0,0,1,.042-.071c.008-.006.014-.006.029-.006a.478.478,0,0,1,.328.231.084.084,0,0,1,.013.048v.014c.162,0,1.661-.2,1.73-.2a.36.36,0,0,1,.224.114.1.1,0,0,1,.05.083.121.121,0,0,1-.021.063m-1.967.245c-.035,0-.064.008-.091.008a.239.239,0,0,1-.106-.022,7.387,7.387,0,0,1-.707.84c.245.147.946.609,1.268.869a8.945,8.945,0,0,0,1.133-1.855c-.692.062-1.335.146-1.5.16m2.373-.189a.125.125,0,0,1-.113-.077,4.348,4.348,0,0,0-.553-.665.119.119,0,0,1-.035-.077.175.175,0,0,1,.162-.162.134.134,0,0,1,.083.029,4.732,4.732,0,0,1,.63.707.128.128,0,0,1,.015.049.218.218,0,0,1-.189.2m.524-.322a.131.131,0,0,1-.1-.063,4.821,4.821,0,0,0-.568-.657.1.1,0,0,1-.035-.079.155.155,0,0,1,.154-.147.129.129,0,0,1,.083.029,4.49,4.49,0,0,1,.653.665.146.146,0,0,1,.014.05.218.218,0,0,1-.2.2" fill="#fff"/>
        <path id="パス_839" data-name="パス 839" d="M924.39,5028.022c-1.682.013-3.171.119-4.256.21a1.261,1.261,0,0,1-.141.006.311.311,0,0,1-.273-.147.286.286,0,0,1-.07-.154.056.056,0,0,1,.035-.056.081.081,0,0,1,.042-.008c.062,0,.154.024.245.024H920c1.308-.079,2.73-.184,4.15-.234h.021c.17,0,.463.072.505.183,0,.008.006.014.006.027,0,.093-.174.149-.293.149" fill="#fff"/>
        <path id="パス_840" data-name="パス 840" d="M929.2,5028.322a.7.7,0,0,1-.6-.665.458.458,0,0,1,.481-.518.729.729,0,0,1,.6.686.452.452,0,0,1-.478.5" fill="#fff"/>
        <path id="パス_841" data-name="パス 841" d="M938.366,5025.914c-.014.014-.041.027-.056.056a10.31,10.31,0,0,1-4.131,4.466.458.458,0,0,1-.194.064.089.089,0,0,1-.077-.035.049.049,0,0,1-.008-.036c0-.049.056-.112.167-.168a11.178,11.178,0,0,0,3.852-4.333c-.7.063-.973.112-1.4.162a.928.928,0,0,1-.119.005.279.279,0,0,1-.07-.005,8.723,8.723,0,0,1-1.961,1.917.241.241,0,0,1-.133.056.067.067,0,0,1-.062-.027.111.111,0,0,1-.021-.064c0-.027.021-.056.083-.1a10.052,10.052,0,0,0,1.855-2.06.322.322,0,0,0,.051-.167.353.353,0,0,0-.022-.112v-.021c0-.035.027-.048.056-.048a.074.074,0,0,1,.035,0,.556.556,0,0,1,.322.239c.015.014.015.027.015.05a.079.079,0,0,1-.008.041c.21-.021,1.526-.189,1.59-.189s.125.021.231.112a.135.135,0,0,1,.056.1.129.129,0,0,1-.05.1" fill="#fff"/>
        <path id="パス_842" data-name="パス 842" d="M942.214,5028.765a.168.168,0,0,1-.16-.114,11,11,0,0,0-.476-1.009.164.164,0,0,1-.023-.076.142.142,0,0,1,.26-.069c.091.139.434.784.553,1.042a.139.139,0,0,1,.021.078.165.165,0,0,1-.175.148m2.669-1.241a5.378,5.378,0,0,1-2.661,3.052.317.317,0,0,1-.1.021c-.056,0-.091-.027-.091-.069s.035-.091.112-.133a5.757,5.757,0,0,0,2.408-2.961.169.169,0,0,0,.014-.078c0-.048-.022-.084-.022-.119a.045.045,0,0,1,.014-.035.086.086,0,0,1,.058-.021.429.429,0,0,1,.229.1.137.137,0,0,1,.064.114.335.335,0,0,1-.027.125m-1.653.96a.145.145,0,0,1-.147-.12,8.16,8.16,0,0,0-.414-1.044.1.1,0,0,1-.014-.062.139.139,0,0,1,.141-.133.122.122,0,0,1,.112.064,8.8,8.8,0,0,1,.5,1.085.076.076,0,0,1,.008.042.189.189,0,0,1-.183.168" fill="#fff"/>
        <path id="パス_843" data-name="パス 843" d="M952.364,5025.914c-.014.014-.041.027-.056.056a10.322,10.322,0,0,1-4.131,4.466.461.461,0,0,1-.2.064.092.092,0,0,1-.077-.035.049.049,0,0,1-.008-.036c0-.049.056-.112.168-.168a11.178,11.178,0,0,0,3.852-4.333c-.7.063-.973.112-1.4.162a.935.935,0,0,1-.12.005.274.274,0,0,1-.069-.005,8.725,8.725,0,0,1-1.961,1.917.241.241,0,0,1-.133.056.067.067,0,0,1-.062-.027.114.114,0,0,1-.023-.064c0-.027.023-.056.085-.1a10.081,10.081,0,0,0,1.855-2.06.332.332,0,0,0,.05-.167.35.35,0,0,0-.021-.112v-.021c0-.035.027-.048.056-.048a.076.076,0,0,1,.035,0,.549.549,0,0,1,.321.239c.016.014.016.027.016.05a.079.079,0,0,1-.008.041c.21-.021,1.526-.189,1.59-.189s.125.021.231.112a.135.135,0,0,1,.056.1.129.129,0,0,1-.05.1" fill="#fff"/>
      </g>
    </g>
  </g>
</svg>
