<svg xmlns="http://www.w3.org/2000/svg" width="49.201" height="37.833" viewBox="0 0 49.201 37.833">
  <g id="グループ_122" data-name="グループ 122" transform="translate(-521.414 -4999.919)">
    <path id="パス_844" data-name="パス 844" d="M540.432,5003.257l-.062.235c-.117.46-.11.913.242.913v.4h-1.424v-.4c.355,0,.5-.351.718-1.155l.9-3.269h.627l.922,3.519c.14.546.259.9.624.9v.4h-1.864v-.4c.326,0,.443-.32.318-.913l-.054-.235Zm.835-.547-.305-1.414-.388,1.414Z" fill="#fff"/>
    <path id="パス_845" data-name="パス 845" d="M561.316,5001.416a1.554,1.554,0,0,0-.261-.591,1.26,1.26,0,0,0-.844-.43.7.7,0,0,0-.728.63c-.008.437.367.674.95.843,1.006.3,1.451.615,1.451,1.536a1.367,1.367,0,0,1-1.382,1.451,1.646,1.646,0,0,1-.721-.185,1.159,1.159,0,0,0-.438-.153c-.122,0-.207.153-.276.292h-.384v-1.651h.384a1.5,1.5,0,0,0,.238.568,1.263,1.263,0,0,0,1.1.561.677.677,0,0,0,.658-.584c.028-.49-.176-.655-.66-.827-.249-.089-.358-.117-.7-.246a1.338,1.338,0,0,1-.967-1.391,1.3,1.3,0,0,1,1.382-1.32,2.331,2.331,0,0,1,.637.092,1.207,1.207,0,0,0,.353.077.3.3,0,0,0,.207-.115h.376v1.443Z" fill="#fff"/>
    <path id="パス_846" data-name="パス 846" d="M546.393,4999.981v.4h.147a.353.353,0,0,1,.353.353v2.185l-1.137-2.933h-1.65v.4h.147a.353.353,0,0,1,.352.353v3.324a.352.352,0,0,1-.352.352h-.147v.4h1.428v-.4h-.076a.352.352,0,0,1-.353-.352v-3.111l1.48,3.859h.807v-4.072a.353.353,0,0,1,.353-.353h.147v-.4Z" fill="#fff"/>
    <path id="パス_847" data-name="パス 847" d="M551.362,4999.981v.4h.155a.351.351,0,0,1,.352.352h0v3a.72.72,0,0,1-1.421,0v-3a.352.352,0,0,1,.353-.352h.147v-.4h-1.882v.4h.147a.352.352,0,0,1,.353.352h0v3.074a1.432,1.432,0,0,0,2.8,0v-3.074a.351.351,0,0,1,.1-.249.347.347,0,0,1,.249-.1h.155v-.4Z" fill="#fff"/>
    <path id="パス_848" data-name="パス 848" d="M536.158,5000.962v-.194a.352.352,0,0,1,.353-.352h.163c.366,0,.679.3.679.89h.492v-1.325h-3.069v.4h.147a.353.353,0,0,1,.353.353v3.324a.352.352,0,0,1-.353.352h-.147v.4h3.069v-1.333h-.492c0,.484-.133.883-.679.883h-.163a.353.353,0,0,1-.353-.353v-1.466h.773v-.555h-.773v-1.015Z" fill="#fff"/>
    <path id="パス_849" data-name="パス 849" d="M532.024,4999.981h-1.879v.4h.147a.352.352,0,0,1,.352.353v3.324a.352.352,0,0,1-.352.352h-.147v.4h1.889v-.4h-.155a.352.352,0,0,1-.352-.352v-1.35h.622a1.248,1.248,0,0,0,1.358-1.319C533.515,5000.353,532.984,4999.981,532.024,4999.981Zm0,2.174h-.5v-1.3a.353.353,0,0,1,.352-.353h.145c.257,0,.652.245.652.85C532.676,5002,532.281,5002.155,532.024,5002.155Z" fill="#fff"/>
    <path id="パス_850" data-name="パス 850" d="M554.074,4999.981v1.117h.461c0-.149.117-.657.453-.657h.087a.241.241,0,0,1,.241.242v3.375a.353.353,0,0,1-.353.352h-.154v.4H556.7v-.4h-.155a.353.353,0,0,1-.353-.352V5000.7a.241.241,0,0,1,.241-.239h.087c.336,0,.453.507.453.657h.461V5000Z" fill="#fff"/>
    <g id="グループ_116" data-name="グループ 116">
      <path id="パス_851" data-name="パス 851" d="M526.666,5013.984V5012.6a2.948,2.948,0,0,0-.2-1.091,2.666,2.666,0,0,0-.549-.867,2.461,2.461,0,0,0-1.862-.748,2.8,2.8,0,0,0-1.074.2,2.521,2.521,0,0,0-.836.549,2.411,2.411,0,0,0-.541.828,2.746,2.746,0,0,0-.191,1.034v6.239a2.908,2.908,0,0,0,.246,1.281,2.491,2.491,0,0,0,.629.82,2.226,2.226,0,0,0,.86.445,3.627,3.627,0,0,0,.939.127,2.409,2.409,0,0,0,1.01-.214,2.66,2.66,0,0,0,.82-.581,2.766,2.766,0,0,0,.549-.836,2.529,2.529,0,0,0,.2-.994v-.7h-1.473a.151.151,0,0,0-.151.151v.406a1.413,1.413,0,0,1-.095.557.956.956,0,0,1-.239.35,1.018,1.018,0,0,1-.342.183,1.149,1.149,0,0,1-.342.056.845.845,0,0,1-.772-.334,1.5,1.5,0,0,1-.215-.828v-5.793a2,2,0,0,1,.2-.947.825.825,0,0,1,.8-.374.879.879,0,0,1,.732.35,1.32,1.32,0,0,1,.27.828v1.444h1.473A.151.151,0,0,0,526.666,5013.984Z" fill="#fff"/>
      <path id="パス_852" data-name="パス 852" d="M539.193,5009.985h0a.151.151,0,0,0-.15.151v1.377h.451v8.126a.15.15,0,0,1-.15.15h-.151a.15.15,0,0,0-.15.15v1.378h2.375a.151.151,0,0,0,.151-.15v-1.378h-.452v-2.558a.151.151,0,0,1,.151-.15h2.2a.151.151,0,0,0,.151-.151v-1.377h-2.5v-3.889a.151.151,0,0,1,.151-.151h2.914a.15.15,0,0,0,.15-.15v-1.378Z" fill="#fff"/>
      <path id="パス_853" data-name="パス 853" d="M547.857,5009.985h0a.151.151,0,0,0-.15.151v1.377h.451v8.126a.15.15,0,0,1-.15.15h-.151a.15.15,0,0,0-.15.15v1.378h2.375a.151.151,0,0,0,.151-.15v-1.378h-.452v-2.558a.151.151,0,0,1,.151-.15h2.2a.151.151,0,0,0,.151-.151v-1.377h-2.5v-3.889a.151.151,0,0,1,.151-.151h2.914a.15.15,0,0,0,.15-.15v-1.378Z" fill="#fff"/>
      <path id="パス_854" data-name="パス 854" d="M570.615,5021.167v-1.378H567.4v-2.519a.151.151,0,0,1,.151-.15h2a.152.152,0,0,0,.151-.151v-1.377h-2.3v-3.928a.151.151,0,0,1,.151-.151h2.914a.15.15,0,0,0,.15-.15v-1.378h-5.139a.152.152,0,0,0-.151.151v1.377h.452v8.126a.151.151,0,0,1-.151.15h-.15a.152.152,0,0,0-.151.15v1.378h5.14A.15.15,0,0,0,570.615,5021.167Z" fill="#fff"/>
    </g>
    <g id="グループ_117" data-name="グループ 117">
      <path id="パス_855" data-name="パス 855" d="M532.909,5020.914l.016-.021a.716.716,0,0,1,.572-.254,1.316,1.316,0,0,1,.808.31,2.991,2.991,0,0,0,.314-.237,2.344,2.344,0,0,0,.373-.419c-.087,0-.173-.011-.264-.011a5.692,5.692,0,0,0-2.578.619,3.99,3.99,0,0,0-.467.3c.032.013.062.028.1.04a2.863,2.863,0,0,0,.843.168c.133-.235.233-.406.274-.47Z" fill="#fff"/>
      <path id="パス_856" data-name="パス 856" d="M530.373,5020.055a3.843,3.843,0,0,1,.93-.616,4.438,4.438,0,0,1,.483-.195,1.331,1.331,0,0,1-.127-.6v-5.984a1.078,1.078,0,0,1,.326-.867,1.208,1.208,0,0,1,1.544,0,1.081,1.081,0,0,1,.326.867v5.984a1.687,1.687,0,0,1-.019.253c.088,0,.176-.007.265-.007a7.8,7.8,0,0,1,1.36.118c.011-.117.017-.238.017-.364v-5.984a2.894,2.894,0,0,0-.238-1.209,2.7,2.7,0,0,0-.621-.876,2.9,2.9,0,0,0-.884-.509,2.826,2.826,0,0,0-1.957,0,2.714,2.714,0,0,0-.868.509,2.564,2.564,0,0,0-.636.876,2.894,2.894,0,0,0-.239,1.209v5.984a2.875,2.875,0,0,0,.239,1.226C530.3,5019.934,530.339,5019.994,530.373,5020.055Z" fill="#fff"/>
    </g>
    <g id="グループ_118" data-name="グループ 118">
      <path id="パス_857" data-name="パス 857" d="M530.167,5022.15c-.206-.66-.09-1.6,1.338-2.294,1.481-.718,4.312-.707,5.638.289,1.107.835.862,2.086-.412,3.025a10.094,10.094,0,0,1-4.479,1.691,10.117,10.117,0,0,0-1.146,2.793c.1.278-.862.011-.875-.371a21.754,21.754,0,0,1,1.377-2.978c.5-1.054,1.523-2.878,1.678-3.121.206-.255.991.151.785.348a21.35,21.35,0,0,0-1.588,2.9,8.459,8.459,0,0,0,3.051-1.368c1.3-1,1.879-2.41.785-2.943a5.511,5.511,0,0,0-4.389.371c-1.055.568-1.532,1.344-1.467,1.622C530.411,5022.3,530.192,5022.289,530.167,5022.15Z" fill="#fff"/>
      <path id="パス_858" data-name="パス 858" d="M540.3,5022.915a.763.763,0,0,1,.863.846,4.722,4.722,0,0,1-.914,2.016h.077c1.043-.058,2.137-1.68,2.278-1.854.1-.151.3-.081.245.15a4.915,4.915,0,0,1-1.7,1.831,2.131,2.131,0,0,1-1.2.244,2.959,2.959,0,0,1-1.2.868,1.645,1.645,0,0,1-1.969-1.158c-.091-1.3,1.094-3.256,2.445-3.441a1.265,1.265,0,0,1,1.094.4C540.348,5022.88,540.335,5022.9,540.3,5022.915Zm-.064,0a2,2,0,0,0-.682-.035c-.824.174-2.1,2-2.021,3.349.039.59.6.475.927.266a3.876,3.876,0,0,0,.772-.649,1.592,1.592,0,0,1-.232-.255,1.87,1.87,0,0,1,.721-2.537A1.089,1.089,0,0,1,540.232,5022.915Zm-.746,2.641a4.4,4.4,0,0,0,1.068-2.131c.038-.36-.515-.255-.927.232C539.1,5024.27,538.983,5025.151,539.486,5025.556Z" fill="#fff"/>
      <path id="パス_859" data-name="パス 859" d="M545.689,5025.985c.3.035,2.729-3.429,3.578-3.673.412-.115.541.093.412.232-.823.22-3.475,3.858-3.8,4.183-.283.336-1.106-.22-1.094-.579.1-.475.245-1.576.451-2.411-1.056,1.217-2.021,2.781-2.227,2.99-.283.324-1.145-.232-1.133-.591a31.435,31.435,0,0,0,.721-3.441c.168-.29.811-.2.85.162.051.382-.554,2.5-.631,3.117.245.035,1.776-2.132,2.574-3.117.168-.2.9-.127.9.046C546.268,5023.286,545.767,5025.371,545.689,5025.985Z" fill="#fff"/>
      <path id="パス_860" data-name="パス 860" d="M552.858,5023.355c-.772,1.414-1.48,3.5-.682,3.1a15.423,15.423,0,0,0,2.472-2.491.163.163,0,0,1,.257.174,11.853,11.853,0,0,1-2.394,2.665c-.412.22-1.429.081-1.532-.637a2.191,2.191,0,0,1,.09-.9,6.455,6.455,0,0,1-1.673,1.564,1.048,1.048,0,0,1-1.158-.521c-.3-.765,1.119-3.21,2.317-3.7a1.736,1.736,0,0,1,1.608.243c.528-.916,1.082-2.028,1.751-2.989.27-.3,1.2-.313,1.042-.082A30.278,30.278,0,0,0,552.858,5023.355Zm-1.312.672.45-.869a.824.824,0,0,0-.837-.185c-.952.359-2.548,3.406-2.046,3.429C549.461,5026.426,550.966,5024.943,551.546,5024.027Z" fill="#fff"/>
      <path id="パス_861" data-name="パス 861" d="M554.828,5025.209a2.029,2.029,0,0,0-.155.614.658.658,0,0,0,.58.73c1.209.127,2.754-1.889,3.32-2.526.142-.139.322-.093.335.046a7.655,7.655,0,0,1-2.652,2.758,1.879,1.879,0,0,1-2.342-.741c-.476-1.205,1.017-3.163,2.1-3.627.888-.382,1.879.429,1.789.938C557.7,5023.992,555.87,5024.827,554.828,5025.209Zm.219-.475c1.158-.568,2.535-1.61,1.969-1.889C556.681,5022.695,555.626,5023.7,555.047,5024.734Z" fill="#fff"/>
      <path id="パス_862" data-name="パス 862" d="M560.942,5022.868c.4.093.72.325.334.742-.682.742-1.737,3.013-1.068,3.094.4.046,1.416-.811,1.853-1.414.1-.127.322-.081.206.128a4.377,4.377,0,0,1-1.48,1.7c-.489.139-1.532-.22-1.609-1.008s.875-2.294,1.146-2.735c.167-.243-.219-.266-.592-.324-.348.486-1.094,1.495-1.39,1.819-.155.127-.412.023-.348-.127.245-.348,1.017-1.345,1.287-1.8-.064-.035-.129-.082-.141-.139-.142-.371.527-1.5.823-1.607.193-.07.58.208.541.428a5.021,5.021,0,0,1-.592,1.144C559.912,5022.8,560.736,5022.822,560.942,5022.868Z" fill="#fff"/>
    </g>
    <path id="パス_863" data-name="パス 863" d="M559.809,5020.767a.649.649,0,0,1,.222-.038,1.031,1.031,0,0,1,.745.377.866.866,0,0,1,.128.211h.606a.15.15,0,0,0,.15-.15v-1.378h-3.215v-2.519a.151.151,0,0,1,.151-.15h2a.152.152,0,0,0,.151-.151v-1.377h-2.3v-3.928a.151.151,0,0,1,.151-.151h2.914a.15.15,0,0,0,.15-.15v-1.378h-5.139a.151.151,0,0,0-.15.151v1.377h.451v8.126a.15.15,0,0,1-.15.15h-.151a.15.15,0,0,0-.15.15v1.378h2.839A1.442,1.442,0,0,1,559.809,5020.767Z" fill="#fff"/>
    <g id="グループ_120" data-name="グループ 120">
      <g id="グループ_119" data-name="グループ 119">
        <path id="パス_864" data-name="パス 864" d="M529.075,5031.706c-.232.019-.253.037-.293.243l-.22,1.152c-.042.212-.018.233.216.249l-.016.082H528l.017-.082c.223-.019.248-.039.29-.249l.223-1.152c.04-.208.019-.224-.214-.243l.019-.082h.758Z" fill="#fff"/>
        <path id="パス_865" data-name="パス 865" d="M531.283,5031.706c-.184.014-.228.059-.261.175-.023.085-.055.212-.1.468l-.211,1.107H530.6l-.834-1.46-.137.726c-.045.234-.067.369-.075.46-.009.128.049.153.25.169l-.018.081h-.672l.017-.081c.157-.012.228-.046.267-.17a4.634,4.634,0,0,0,.108-.466l.149-.757a.185.185,0,0,0-.037-.171.321.321,0,0,0-.229-.081l.02-.082h.426l.827,1.408.133-.689c.049-.258.069-.385.075-.463.012-.127-.038-.163-.244-.174l.02-.082h.656Z" fill="#fff"/>
        <path id="パス_866" data-name="パス 866" d="M532.356,5031.706c-.233.019-.253.037-.293.243l-.22,1.152c-.042.212-.018.233.216.249l-.016.082h-.763l.017-.082c.223-.019.248-.039.29-.249l.223-1.152c.04-.208.019-.224-.214-.243l.018-.082h.759Z" fill="#fff"/>
        <path id="パス_867" data-name="パス 867" d="M533.947,5033.008a.461.461,0,0,1-.639.466.767.767,0,0,1-.833-.8,1.081,1.081,0,0,1,1.14-1.086,1.784,1.784,0,0,1,.49.068c-.02.1-.043.286-.058.43-.026,0-.062,0-.088.007-.009-.325-.141-.4-.4-.4a.9.9,0,0,0-.792.982c0,.423.206.7.56.7.262,0,.4-.152.541-.4Z" fill="#fff"/>
        <path id="パス_868" data-name="パス 868" d="M535.848,5033.157a.791.791,0,0,1-.569.309c-.193,0-.321-.15-.321-.414a.924.924,0,0,1,.287-.668.757.757,0,0,1,.45-.209c.125,0,.219.062.221.13a.169.169,0,0,1-.1.151.05.05,0,0,1-.067-.016.274.274,0,0,0-.213-.127c-.2,0-.321.345-.321.673,0,.2.077.3.2.3a.631.631,0,0,0,.388-.207Z" fill="#fff"/>
        <path id="パス_869" data-name="パス 869" d="M537.275,5032.613a.884.884,0,0,1-.392.742.686.686,0,0,1-.349.111c-.277,0-.382-.219-.382-.438a.841.841,0,0,1,.46-.781.719.719,0,0,1,.285-.072C537.138,5032.175,537.275,5032.334,537.275,5032.613Zm-.863.393c0,.209.076.341.22.341.251,0,.386-.42.386-.729,0-.228-.094-.325-.222-.325C536.524,5032.293,536.412,5032.734,536.412,5033.006Z" fill="#fff"/>
        <path id="パス_870" data-name="パス 870" d="M537.85,5032.209a1.115,1.115,0,0,1,.242-.547.617.617,0,0,1,.411-.22c.107,0,.185.056.185.116a.255.255,0,0,1-.089.147.046.046,0,0,1-.066,0,.288.288,0,0,0-.193-.112c-.1,0-.168.1-.253.618h.311l-.055.1c-.046,0-.2.014-.274.014-.051.3-.082.483-.145.818a1.4,1.4,0,0,1-.367.831.508.508,0,0,1-.32.177c-.1,0-.181-.056-.18-.126a.233.233,0,0,1,.089-.159.039.039,0,0,1,.053,0,.321.321,0,0,0,.189.1c.151,0,.192-.192.283-.728.066-.378.11-.632.155-.912h-.232v-.032l.08-.086Z" fill="#fff"/>
        <path id="パス_871" data-name="パス 871" d="M538.842,5032.209a1.106,1.106,0,0,1,.242-.547.615.615,0,0,1,.411-.22c.107,0,.184.056.184.116a.25.25,0,0,1-.089.147.045.045,0,0,1-.065,0,.29.29,0,0,0-.193-.112c-.1,0-.169.1-.254.618h.311l-.054.1c-.047,0-.2.014-.274.014-.051.3-.082.483-.145.818a1.4,1.4,0,0,1-.367.831.513.513,0,0,1-.32.177c-.1,0-.182-.056-.181-.126a.233.233,0,0,1,.089-.159.039.039,0,0,1,.053,0,.323.323,0,0,0,.19.1c.151,0,.192-.192.283-.728.066-.378.11-.632.155-.912h-.233v-.032l.079-.086Z" fill="#fff"/>
        <path id="パス_872" data-name="パス 872" d="M539.768,5033.466c-.14,0-.321-.081-.321-.416a.929.929,0,0,1,.329-.725.705.705,0,0,1,.388-.15.229.229,0,0,1,.256.227c0,.281-.412.408-.716.463,0,.032-.006.088-.006.115,0,.158.045.309.213.309a.614.614,0,0,0,.411-.22l.042.073A.8.8,0,0,1,539.768,5033.466Zm-.053-.695c.383-.072.476-.2.478-.33a.129.129,0,0,0-.138-.144C539.973,5032.3,539.79,5032.363,539.715,5032.771Z" fill="#fff"/>
        <path id="パス_873" data-name="パス 873" d="M541.024,5033.466c-.14,0-.321-.081-.321-.416a.929.929,0,0,1,.329-.725.705.705,0,0,1,.388-.15.229.229,0,0,1,.256.227c0,.281-.411.408-.716.463,0,.032-.006.088-.006.115,0,.158.045.309.213.309a.612.612,0,0,0,.411-.22l.043.073A.8.8,0,0,1,541.024,5033.466Zm-.053-.695c.383-.072.476-.2.478-.33a.129.129,0,0,0-.138-.144C541.229,5032.3,541.046,5032.363,540.971,5032.771Z" fill="#fff"/>
        <path id="パス_874" data-name="パス 874" d="M543.311,5031.624a.842.842,0,0,1,.472.1.45.45,0,0,1,.2.4.581.581,0,0,1-.626.565.38.38,0,0,1-.05-.006l-.167-.036v.442c0,.248.028.262.245.3v.044h-.812v-.044c.2-.039.222-.05.222-.3v-1.121c0-.25-.025-.261-.222-.3v-.045Zm-.17.963a.518.518,0,0,0,.147.014c.084,0,.326-.039.326-.473,0-.331-.159-.437-.353-.437a.178.178,0,0,0-.095.02c-.019.014-.025.042-.025.086Z" fill="#fff"/>
        <path id="パス_875" data-name="パス 875" d="M545.592,5033c-.014.1-.064.369-.081.436h-1.357v-.044c.239-.042.259-.047.259-.3v-1.129c0-.251-.022-.264-.212-.295v-.045h.843c.273,0,.381,0,.4,0,0,.106.014.284.028.4l-.044.008a.722.722,0,0,0-.12-.241c-.05-.062-.111-.081-.275-.081h-.209c-.058,0-.069.011-.069.067v.664h.269c.22,0,.237-.08.267-.233h.045v.55h-.045c-.038-.161-.047-.233-.267-.233h-.269v.592c0,.195.041.231.214.234h.164a.289.289,0,0,0,.273-.1.946.946,0,0,0,.141-.259Z" fill="#fff"/>
        <path id="パス_876" data-name="パス 876" d="M546.783,5033.432v-.044c.192-.042.2-.073.145-.217-.034-.092-.081-.237-.139-.392h-.509c-.047.128-.092.253-.125.353-.064.186-.039.2.2.256v.044h-.6v-.044c.167-.042.22-.067.317-.314l.576-1.469.075-.011c.175.492.356.976.54,1.463.1.267.139.289.3.331v.044Zm-.242-1.365c-.086.23-.15.417-.228.623h.442Z" fill="#fff"/>
        <path id="パス_877" data-name="パス 877" d="M549.613,5031.669c-.184.039-.226.07-.231.259,0,.086-.009.155-.009.445v1.1H549.3l-1.246-1.5v.709c0,.287,0,.34.008.431.011.19.031.237.284.276v.044h-.643v-.044c.2-.036.234-.073.245-.267.006-.1.011-.209.011-.44v-.728a.244.244,0,0,0-.044-.148.341.341,0,0,0-.245-.136v-.045h.531l1.074,1.26v-.511c0-.29-.008-.362-.011-.44-.009-.194-.067-.233-.309-.264v-.045h.654Z" fill="#fff"/>
        <path id="パス_878" data-name="パス 878" d="M551.688,5031.669c-.209.047-.217.111-.228.211a3.939,3.939,0,0,0-.012.4v.328a.954.954,0,0,1-.178.684.653.653,0,0,1-.509.184.742.742,0,0,1-.486-.15.725.725,0,0,1-.206-.6v-.7c0-.287-.02-.312-.225-.351v-.045h.792v.045c-.214.042-.222.064-.222.351v.72c0,.4.175.578.481.578.334,0,.459-.194.459-.723v-.317c0-.206-.006-.317-.014-.4-.011-.136-.061-.173-.289-.206v-.045h.637Z" fill="#fff"/>
        <path id="パス_879" data-name="パス 879" d="M553.464,5032.036a.688.688,0,0,0-.133-.264c-.053-.053-.081-.067-.245-.067h-.194v1.385c0,.239.027.262.244.3v.044h-.823v-.044c.2-.045.234-.053.234-.3v-1.385h-.254a.208.208,0,0,0-.189.072.8.8,0,0,0-.128.265h-.047c.011-.142.028-.337.034-.479H552c.047.061.091.061.169.061h1.11a.2.2,0,0,0,.169-.061h.037c0,.117.005.323.022.467Z" fill="#fff"/>
        <path id="パス_880" data-name="パス 880" d="M554.785,5032.02c-.061-.176-.183-.368-.4-.368a.258.258,0,0,0-.267.289c0,.176.1.259.333.4s.454.292.454.584a.579.579,0,0,1-.64.548,1.589,1.589,0,0,1-.42-.067c-.014-.047-.058-.381-.061-.425l.044-.009a.552.552,0,0,0,.476.431c.192,0,.281-.13.281-.316s-.1-.29-.3-.415c-.24-.15-.454-.287-.454-.57a.522.522,0,0,1,.6-.518,2.762,2.762,0,0,1,.354.037c.011.1.027.256.047.389Z" fill="#fff"/>
        <path id="パス_881" data-name="パス 881" d="M557.176,5033.183a.676.676,0,0,1-.4.285c-.086,0-.124-.07-.068-.335l.031-.145c-.16.232-.421.48-.617.48-.114,0-.213-.1-.213-.358a1,1,0,0,1,.324-.731.9.9,0,0,1,.479-.2.487.487,0,0,1,.189.032l.093-.454c.022-.115,0-.126-.1-.135-.028,0-.083-.006-.1-.006l.018-.078a2.055,2.055,0,0,0,.367-.073.53.53,0,0,1,.084-.02c.025,0,.03.026.016.084-.125.539-.26,1.14-.348,1.62-.014.074,0,.106.016.106s.1-.043.2-.146Zm-.5-.263a.74.74,0,0,0,.127-.292l.055-.24a.348.348,0,0,0-.258-.086c-.307,0-.44.452-.44.746,0,.148.04.223.111.223C556.386,5033.271,556.545,5033.118,556.68,5032.92Z" fill="#fff"/>
        <path id="パス_882" data-name="パス 882" d="M557.81,5033.466c-.14,0-.321-.081-.321-.416a.929.929,0,0,1,.329-.725.705.705,0,0,1,.388-.15.229.229,0,0,1,.256.227c0,.281-.411.408-.716.463,0,.032-.006.088-.006.115,0,.158.045.309.213.309a.612.612,0,0,0,.411-.22l.043.073A.8.8,0,0,1,557.81,5033.466Zm-.053-.695c.383-.072.476-.2.479-.33a.13.13,0,0,0-.139-.144C558.015,5032.3,557.833,5032.363,557.757,5032.771Z" fill="#fff"/>
        <path id="パス_883" data-name="パス 883" d="M559.446,5032.331a.174.174,0,0,1-.09.139c-.027.012-.044.007-.069-.02a.306.306,0,0,0-.213-.13.144.144,0,0,0-.143.151c0,.088.084.153.185.23.165.129.246.2.246.33,0,.232-.306.435-.525.435-.137,0-.271-.093-.272-.2a.178.178,0,0,1,.118-.149c.02,0,.032.007.051.028a.339.339,0,0,0,.256.169.163.163,0,0,0,.172-.162c0-.065-.029-.129-.162-.236s-.252-.182-.25-.331a.356.356,0,0,1,.151-.277.532.532,0,0,1,.319-.137C559.347,5032.175,559.446,5032.249,559.446,5032.331Z" fill="#fff"/>
        <path id="パス_884" data-name="パス 884" d="M560.262,5033.185a.649.649,0,0,1-.413.281c-.076,0-.11-.075-.059-.292.046-.191.121-.478.172-.7.013-.058.01-.083-.008-.083a.463.463,0,0,0-.178.119l-.037-.075a.819.819,0,0,1,.423-.264c.074,0,.08.094.028.309-.051.2-.117.468-.165.662-.02.074-.02.106,0,.106a.412.412,0,0,0,.2-.14Zm.073-1.445a.165.165,0,0,1-.158.171.127.127,0,0,1-.131-.134.172.172,0,0,1,.167-.173A.122.122,0,0,1,560.335,5031.74Z" fill="#fff"/>
        <path id="パス_885" data-name="パス 885" d="M560.966,5033.093c-.039.038-.063.063-.063.094s.056.091.217.169c.308.143.4.237.4.361,0,.237-.4.436-.684.436s-.522-.143-.522-.321c0-.12.176-.244.468-.408-.069-.043-.1-.094-.094-.135s.072-.126.2-.2Zm.323.724c0-.058-.028-.12-.131-.184a2.925,2.925,0,0,0-.3-.159c-.212.121-.3.221-.3.313,0,.14.181.243.387.243S561.289,5033.928,561.289,5033.817Zm-.674-1.043a.59.59,0,0,1,.28-.5.667.667,0,0,1,.313-.1.386.386,0,0,1,.244.076.614.614,0,0,0,.312-.064l.022.064a.38.38,0,0,1-.26.142.519.519,0,0,1,.017.124.548.548,0,0,1-.2.426.7.7,0,0,1-.432.163A.3.3,0,0,1,560.615,5032.774Zm.7-.237c0-.163-.062-.257-.178-.257-.16,0-.287.227-.287.47,0,.156.074.243.171.243C561.185,5032.993,561.313,5032.786,561.313,5032.537Z" fill="#fff"/>
        <path id="パス_886" data-name="パス 886" d="M563.2,5033.178a.659.659,0,0,1-.412.288c-.079,0-.12-.066-.067-.3.047-.193.1-.394.138-.568s.029-.23-.035-.23c-.089,0-.294.154-.471.43a.721.721,0,0,0-.1.238c-.028.111-.063.258-.086.373a1.358,1.358,0,0,0-.219.057l-.02-.021c.076-.3.155-.632.225-.943.019-.086.009-.111-.013-.111s-.1.06-.169.125l-.04-.076a.627.627,0,0,1,.378-.265c.085,0,.111.1.052.347l-.036.151a1.081,1.081,0,0,1,.659-.5c.094,0,.182.062.094.435-.037.152-.089.367-.129.536-.016.074-.016.107,0,.107a.433.433,0,0,0,.2-.146Z" fill="#fff"/>
        <path id="パス_887" data-name="パス 887" d="M563.645,5033.453a.131.131,0,0,1-.135-.143.164.164,0,0,1,.163-.17.134.134,0,0,1,.135.145A.159.159,0,0,1,563.645,5033.453Z" fill="#fff"/>
      </g>
    </g>
    <g id="グループ_121" data-name="グループ 121">
      <path id="パス_888" data-name="パス 888" d="M537.113,5036.779H536.7l.03-.1h.409Z" fill="#fff"/>
      <path id="パス_889" data-name="パス 889" d="M538.35,5036.17c.342,0,.553.168.553.48a.6.6,0,0,1-.28.527.818.818,0,0,1-.49.124H537.7l.012-.051c.139-.012.156-.029.18-.161l.137-.705c.026-.137.021-.151-.132-.163l.012-.051Zm-.3.9c-.029.148.062.163.16.163a.528.528,0,0,0,.512-.595.354.354,0,0,0-.381-.406c-.1,0-.132.011-.15.1Z" fill="#fff"/>
      <path id="パス_890" data-name="パス 890" d="M539.11,5036.682a.423.423,0,0,1,.239-.168c.06,0,.06.089.025.244l-.01.045c.093-.159.21-.289.283-.289a.084.084,0,0,1,.083.082.174.174,0,0,1-.072.118c-.016.011-.03.011-.039,0s-.04-.051-.061-.051c-.042,0-.128.13-.164.2a1.719,1.719,0,0,0-.122.427,1.186,1.186,0,0,0-.141.036l-.012-.013c.042-.163.1-.419.125-.545.02-.1.015-.115,0-.115a.258.258,0,0,0-.111.079Z" fill="#fff"/>
      <path id="パス_891" data-name="パス 891" d="M540.216,5037.146a.4.4,0,0,1-.259.176c-.048,0-.069-.046-.037-.183.029-.119.076-.3.108-.435.008-.036.006-.052-.005-.052a.3.3,0,0,0-.112.074l-.023-.047a.513.513,0,0,1,.265-.165c.046,0,.05.059.018.193s-.073.294-.1.414c-.012.047-.012.067,0,.067a.261.261,0,0,0,.124-.088Zm.045-.9a.1.1,0,0,1-.1.107.079.079,0,0,1-.081-.084.107.107,0,0,1,.1-.108A.075.075,0,0,1,540.261,5036.242Z" fill="#fff"/>
      <path id="パス_892" data-name="パス 892" d="M540.753,5036.535a.617.617,0,0,1,.158-.021c.184,0,.255.087.255.241a.557.557,0,0,1-.15.365.68.68,0,0,1-.327.2.288.288,0,0,1-.1-.017l-.047.239c-.019.094-.012.111.075.119l.048,0-.008.049-.423.02.01-.048c.117-.02.129-.033.152-.141.066-.3.13-.6.191-.9a1.032,1.032,0,0,0-.14.063l-.013-.05a.981.981,0,0,1,.169-.087l.019-.079a.568.568,0,0,1,.143-.106l.017.012Zm-.135.65a.133.133,0,0,0,.1.056c.119,0,.283-.234.283-.457,0-.151-.079-.189-.177-.189a.392.392,0,0,0-.091.013C540.7,5036.78,540.654,5037.011,540.618,5037.185Z" fill="#fff"/>
      <path id="パス_893" data-name="パス 893" d="M541.694,5036.535a.618.618,0,0,1,.158-.021c.184,0,.254.087.254.241a.552.552,0,0,1-.15.365.673.673,0,0,1-.326.2.294.294,0,0,1-.1-.017l-.046.239c-.019.094-.013.111.074.119l.049,0-.008.049-.423.02.01-.048c.117-.02.129-.033.152-.141.066-.3.129-.6.191-.9a.98.98,0,0,0-.14.063l-.013-.05a.947.947,0,0,1,.169-.087l.019-.079a.55.55,0,0,1,.143-.106l.016.012Zm-.135.65a.131.131,0,0,0,.1.056c.119,0,.284-.234.284-.457,0-.151-.079-.189-.177-.189a.385.385,0,0,0-.091.013C541.643,5036.78,541.595,5037.011,541.559,5037.185Z" fill="#fff"/>
      <path id="パス_894" data-name="パス 894" d="M542.434,5037.322c-.088,0-.2-.05-.2-.26a.584.584,0,0,1,.206-.454.446.446,0,0,1,.243-.094.143.143,0,0,1,.16.142c0,.176-.257.255-.448.29,0,.02,0,.055,0,.072,0,.1.028.193.134.193a.387.387,0,0,0,.257-.137l.027.045A.5.5,0,0,1,542.434,5037.322Zm-.033-.435c.239-.045.3-.124.3-.206a.082.082,0,0,0-.087-.091C542.563,5036.59,542.448,5036.632,542.4,5036.887Z" fill="#fff"/>
      <path id="パス_895" data-name="パス 895" d="M543.743,5037.145a.424.424,0,0,1-.252.178c-.054,0-.078-.043-.043-.209l.019-.091c-.1.145-.263.3-.385.3-.072,0-.134-.064-.134-.224a.623.623,0,0,1,.2-.457.555.555,0,0,1,.3-.126.3.3,0,0,1,.118.02l.058-.284c.014-.072,0-.079-.064-.085-.017,0-.052,0-.063,0l.011-.049a1.336,1.336,0,0,0,.23-.046.32.32,0,0,1,.053-.013c.015,0,.019.017.01.053-.079.337-.163.714-.218,1.014-.009.047,0,.066.01.066s.064-.026.124-.091Zm-.311-.164a.466.466,0,0,0,.079-.183l.035-.151a.222.222,0,0,0-.162-.053c-.192,0-.275.282-.275.467,0,.092.025.139.069.139C543.248,5037.2,543.347,5037.1,543.432,5036.981Z" fill="#fff"/>
      <path id="パス_896" data-name="パス 896" d="M544.906,5037.129a.494.494,0,0,1-.356.193c-.12,0-.2-.094-.2-.259a.58.58,0,0,1,.18-.419.476.476,0,0,1,.282-.13c.078,0,.136.039.138.082a.106.106,0,0,1-.062.094.033.033,0,0,1-.042-.01.168.168,0,0,0-.133-.079c-.124,0-.2.215-.2.421,0,.127.049.189.127.189a.4.4,0,0,0,.243-.129Z" fill="#fff"/>
      <path id="パス_897" data-name="パス 897" d="M545.814,5036.788a.552.552,0,0,1-.246.464.42.42,0,0,1-.218.07c-.173,0-.239-.137-.239-.274a.526.526,0,0,1,.288-.489.452.452,0,0,1,.178-.045C545.728,5036.514,545.814,5036.614,545.814,5036.788Zm-.541.246c0,.131.048.214.138.214.158,0,.242-.264.242-.456,0-.143-.059-.2-.139-.2C545.344,5036.588,545.273,5036.864,545.273,5037.034Z" fill="#fff"/>
      <path id="パス_898" data-name="パス 898" d="M546.188,5036.535a.7.7,0,0,1,.151-.342.386.386,0,0,1,.257-.138c.067,0,.116.035.116.073a.157.157,0,0,1-.056.092.029.029,0,0,1-.041,0,.177.177,0,0,0-.121-.07c-.061,0-.105.063-.159.386h.2l-.034.065c-.029,0-.127.009-.171.009-.032.186-.052.3-.091.512a.873.873,0,0,1-.23.52.32.32,0,0,1-.2.111c-.065,0-.114-.034-.113-.078a.144.144,0,0,1,.056-.1.023.023,0,0,1,.033,0,.205.205,0,0,0,.118.062c.095,0,.121-.121.178-.456.041-.237.069-.4.1-.571h-.146v-.02l.05-.054Z" fill="#fff"/>
      <path id="パス_899" data-name="パス 899" d="M546.82,5036.535a.7.7,0,0,1,.152-.342.386.386,0,0,1,.257-.138c.067,0,.115.035.115.073a.16.16,0,0,1-.055.092.029.029,0,0,1-.041,0,.179.179,0,0,0-.121-.07c-.061,0-.106.063-.159.386h.2l-.034.065c-.029,0-.128.009-.172.009-.031.186-.051.3-.091.512a.868.868,0,0,1-.229.52.32.32,0,0,1-.2.111c-.064,0-.113-.034-.113-.078a.148.148,0,0,1,.056-.1c.013-.009.026-.009.033,0a.211.211,0,0,0,.119.062c.094,0,.12-.121.177-.456.042-.237.069-.4.1-.571h-.145v-.02l.05-.054Z" fill="#fff"/>
      <path id="パス_900" data-name="パス 900" d="M547.415,5037.322c-.088,0-.2-.05-.2-.26a.584.584,0,0,1,.206-.454.446.446,0,0,1,.243-.094.143.143,0,0,1,.16.142c0,.176-.257.255-.448.29,0,.02,0,.055,0,.072,0,.1.028.193.133.193a.387.387,0,0,0,.258-.137l.026.045A.5.5,0,0,1,547.415,5037.322Zm-.033-.435c.239-.045.3-.124.3-.206a.082.082,0,0,0-.086-.091C547.544,5036.59,547.429,5036.632,547.382,5036.887Z" fill="#fff"/>
      <path id="パス_901" data-name="パス 901" d="M548.139,5037.322c-.088,0-.2-.05-.2-.26a.581.581,0,0,1,.206-.454.446.446,0,0,1,.243-.094.143.143,0,0,1,.16.142c0,.176-.258.255-.449.29,0,.02,0,.055,0,.072,0,.1.028.193.133.193a.387.387,0,0,0,.258-.137l.026.045A.5.5,0,0,1,548.139,5037.322Zm-.034-.435c.24-.045.3-.124.3-.206a.082.082,0,0,0-.087-.091C548.267,5036.59,548.153,5036.632,548.1,5036.887Z" fill="#fff"/>
      <path id="パス_902" data-name="パス 902" d="M549.458,5036.535a.617.617,0,0,1,.158-.021c.184,0,.255.087.255.241a.557.557,0,0,1-.15.365.676.676,0,0,1-.327.2.293.293,0,0,1-.1-.017l-.047.239c-.019.094-.012.111.075.119l.048,0-.008.049-.422.02.009-.048c.118-.02.129-.033.153-.141.065-.3.129-.6.19-.9a1.017,1.017,0,0,0-.139.063l-.013-.05a.934.934,0,0,1,.168-.087l.019-.079a.556.556,0,0,1,.144-.106l.016.012Zm-.135.65a.133.133,0,0,0,.1.056c.119,0,.283-.234.284-.457,0-.151-.079-.189-.178-.189a.377.377,0,0,0-.09.013C549.407,5036.78,549.359,5037.011,549.323,5037.185Z" fill="#fff"/>
      <path id="パス_903" data-name="パス 903" d="M550.687,5036.788a.551.551,0,0,1-.245.464.42.42,0,0,1-.218.07c-.173,0-.239-.137-.239-.274a.527.527,0,0,1,.287-.489.461.461,0,0,1,.179-.045C550.6,5036.514,550.687,5036.614,550.687,5036.788Zm-.54.246c0,.131.048.214.138.214.158,0,.242-.264.242-.456,0-.143-.059-.2-.139-.2C550.218,5036.588,550.147,5036.864,550.147,5037.034Z" fill="#fff"/>
      <path id="パス_904" data-name="パス 904" d="M550.8,5036.688c.068-.092.165-.174.224-.174s.073.062.076.21c0,.127,0,.275,0,.367.107-.168.229-.361.33-.544h.049c.013.18.036.405.056.592a1.089,1.089,0,0,0,.244-.426.2.2,0,0,0-.027-.087.041.041,0,0,1-.005-.04.135.135,0,0,1,.1-.072c.045,0,.07.042.07.1a.326.326,0,0,1-.046.152,4.6,4.6,0,0,1-.406.553h-.055c-.014-.149-.034-.357-.052-.527-.109.182-.242.376-.336.527h-.053c0-.138,0-.411-.015-.578-.006-.067-.013-.1-.028-.1s-.047.022-.1.082Z" fill="#fff"/>
      <path id="パス_905" data-name="パス 905" d="M552.761,5037.145a.419.419,0,0,1-.252.178c-.053,0-.078-.043-.043-.209l.02-.091c-.1.145-.263.3-.386.3-.071,0-.133-.064-.133-.224a.625.625,0,0,1,.2-.457.555.555,0,0,1,.3-.126.294.294,0,0,1,.118.02l.058-.284c.014-.072,0-.079-.063-.085-.018,0-.052,0-.063,0l.011-.049a1.341,1.341,0,0,0,.229-.046.347.347,0,0,1,.053-.013c.016,0,.019.017.01.053-.078.337-.163.714-.218,1.014-.009.047,0,.066.01.066s.064-.026.125-.091Zm-.311-.164a.481.481,0,0,0,.08-.183l.034-.151a.221.221,0,0,0-.161-.053c-.192,0-.276.282-.276.467,0,.092.025.139.07.139C552.266,5037.2,552.365,5037.1,552.45,5036.981Z" fill="#fff"/>
      <path id="パス_906" data-name="パス 906" d="M553.086,5037.322c-.088,0-.2-.05-.2-.26a.584.584,0,0,1,.206-.454.446.446,0,0,1,.243-.094.143.143,0,0,1,.16.142c0,.176-.257.255-.448.29,0,.02,0,.055,0,.072,0,.1.028.193.134.193a.387.387,0,0,0,.257-.137l.026.045A.5.5,0,0,1,553.086,5037.322Zm-.033-.435c.239-.045.3-.124.3-.206a.081.081,0,0,0-.086-.091C553.215,5036.59,553.1,5036.632,553.053,5036.887Z" fill="#fff"/>
      <path id="パス_907" data-name="パス 907" d="M553.69,5036.682a.421.421,0,0,1,.24-.168c.059,0,.059.089.025.244l-.011.045c.093-.159.211-.289.283-.289a.084.084,0,0,1,.083.082.174.174,0,0,1-.072.118c-.016.011-.03.011-.039,0s-.039-.051-.06-.051c-.042,0-.128.13-.165.2a1.719,1.719,0,0,0-.122.427,1.17,1.17,0,0,0-.14.036l-.013-.013c.042-.163.1-.419.126-.545.02-.1.014-.115,0-.115a.258.258,0,0,0-.112.079Z" fill="#fff"/>
      <path id="パス_908" data-name="パス 908" d="M555.234,5036.956h-.411l.03-.1h.409Z" fill="#fff"/>
    </g>
  </g>
</svg>
