<svg xmlns="http://www.w3.org/2000/svg" width="37.983" height="37.982" viewBox="0 0 37.983 37.982">
  <g id="グループ_319" data-name="グループ 319" transform="translate(-685.928 -5182.883)">
    <g id="楕円形_10" data-name="楕円形 10" transform="translate(685.928 5213.612) rotate(-76.717)" fill="none" stroke="#fff" stroke-miterlimit="10" stroke-width="0.25">
      <circle cx="15.787" cy="15.787" r="15.787" stroke="none"/>
      <circle cx="15.787" cy="15.787" r="15.662" fill="none"/>
    </g>
    <path id="パス_750" data-name="パス 750" d="M703.023,5209.781a.087.087,0,0,1-.087-.087v-8h-1.555a.087.087,0,0,1-.087-.087v-2.375a.087.087,0,0,1,.087-.087h1.555v-2.4a2.778,2.778,0,0,1,2.774-2.775h2.719a.087.087,0,0,1,.087.087v2.375a.087.087,0,0,1-.087.087H706.82a.831.831,0,0,0-.83.83v1.8h2.4a.09.09,0,0,1,.064.029.088.088,0,0,1,.022.066l-.2,2.374a.088.088,0,0,1-.087.08h-2.2v8a.087.087,0,0,1-.087.087Z" fill="#fff" fill-rule="evenodd"/>
  </g>
</svg>
