<?xml version="1.0" encoding="UTF-8"?>
<svg id="_レイヤー_1" data-name="レイヤー 1" xmlns="http://www.w3.org/2000/svg" version="1.1" viewBox="0 0 38.6 38.6">
  <defs>
    <style>
      .cls-1 {
        fill: #fff;
        stroke-width: 0px;
      }
    </style>
  </defs>
  <path class="cls-1" d="M19,3.8c8.5,0,15.4,6.9,15.5,15.4,0,8.5-6.9,15.5-15.4,15.5h0c-8.5,0-15.4-6.9-15.5-15.4,0-4.1,1.6-8,4.5-11,2.9-2.9,6.8-4.6,10.9-4.6h0M19,3.6s0,0,0,0c-8.7,0-15.7,7.1-15.7,15.8,0,8.7,7.1,15.7,15.7,15.7s0,0,0,0c8.7,0,15.7-7.1,15.7-15.8,0-8.7-7.1-15.7-15.7-15.7h0Z"/>
  <path class="cls-1" d="M20.5,18.1l5.7-6.6h-1.4l-5,5.8-4-5.8h-4.6l6,8.7-6,7h1.4l5.2-6.1,4.2,6.1h4.6l-6.2-9h0ZM18.6,20.3l-.6-.9-4.8-6.9h2.1l3.9,5.6.6.9,5.1,7.3h-2.1l-4.1-5.9h0Z"/>
</svg>