<?xml version="1.0" encoding="UTF-8"?><svg id="_レイヤー_2" xmlns="http://www.w3.org/2000/svg" viewBox="0 0 41 41"><defs><style>.cls-1{fill:#fff;}.cls-2{fill:#040000;}.cls-3{fill:none;}</style></defs><g id="_レイヤー_1-2"><rect class="cls-3" width="41" height="41"/><g><path class="cls-2" d="M5.26,14.19C8.75,5.77,18.4,1.77,26.81,5.26c8.42,3.49,12.41,13.14,8.93,21.55-3.49,8.42-13.14,12.41-21.55,8.93C5.77,32.25,1.77,22.6,5.26,14.19Z"/><path class="cls-1" d="M20.5,37.01c-2.14,0-4.28-.42-6.31-1.26C5.78,32.26,1.77,22.59,5.26,14.19c1.69-4.07,4.86-7.24,8.93-8.93,4.07-1.69,8.56-1.69,12.63,0,8.41,3.48,12.41,13.15,8.93,21.56-1.69,4.07-4.86,7.24-8.93,8.93-2.04,.84-4.17,1.26-6.31,1.26ZM5.47,14.28h0c-3.43,8.29,.52,17.82,8.8,21.25,4.01,1.66,8.43,1.66,12.45,0,4.01-1.66,7.14-4.79,8.8-8.8,3.43-8.29-.52-17.82-8.8-21.25-4.01-1.66-8.43-1.66-12.45,0-4.01,1.66-7.14,4.79-8.8,8.8Z"/><path class="cls-1" d="M20.5,11.23c-5.37,0-9.88,3.5-9.88,7.99,0,4,3.57,7.25,8.23,7.88h0c.12,.03,.26,.07,.35,.11,.02,0,.01,0,.02,.01,0,.05,.01,.28,0,.46,0,.03-.11,.63-.13,.75h0c-.03,.17-.14,.5,.14,.92,.14,.21,.43,.38,.7,.41,.27,.02,.52-.04,.8-.16,.64-.26,1.91-1.02,3.39-2.03,1.47-1.01,3.06-2.23,4.1-3.4,1.41-1.52,2.15-3.16,2.15-4.95,0-4.49-4.5-7.99-9.88-7.99Zm0,1.23c4.84,0,8.64,3.11,8.64,6.76,0,1.46-.55,2.75-1.82,4.12h0s0,.01,0,.01c-.9,1.02-2.45,2.23-3.88,3.21-1.39,.95-2.69,1.68-3.09,1.86,.04-.24,.09-.55,.09-.55h0s0-.02,0-.02c.03-.26,.13-.65-.07-1.13h0c-.15-.36-.42-.52-.64-.62-.22-.11-.44-.16-.62-.2h-.02s-.03,0-.03,0c-4.21-.55-7.21-3.39-7.21-6.66,0-3.65,3.8-6.76,8.64-6.76Zm-.62,4.32c-.31,0-.61,.24-.61,.62v3.7c0,.34,.28,.62,.62,.62s.62-.28,.62-.62v-1.78l1.35,2.13c.35,.49,1.12,.24,1.12-.36v-3.7c0-.34-.28-.62-.62-.62s-.62,.28-.62,.62v1.85l-1.35-2.21c-.13-.18-.32-.26-.51-.26Zm-5.55,0c-.34,0-.62,.28-.62,.62v3.7c0,.34,.28,.62,.62,.62h1.85c.34,0,.62-.28,.62-.62s-.28-.62-.62-.62h-1.23v-3.09c0-.34-.28-.62-.62-.62Zm3.7,0c-.34,0-.62,.28-.62,.62v3.7c0,.34,.28,.62,.62,.62s.62-.28,.62-.62v-3.7c0-.34-.28-.62-.62-.62Zm6.17,0c-.34,0-.62,.28-.62,.62v3.7c0,.34,.28,.62,.62,.62h1.85c.34,0,.62-.28,.62-.62s-.28-.62-.62-.62h-1.23v-.62h1.23c.34,0,.62-.28,.62-.62s-.28-.62-.62-.62h-1.23v-.62h1.23c.34,0,.62-.28,.62-.62s-.28-.62-.62-.62h-1.85Z"/></g></g></svg>